<?xml version="1.0" encoding="utf-8"?>
<!-- Generator: Adobe Illustrator 17.1.0, SVG Export Plug-In . SVG Version: 6.00 Build 0)  -->
<!DOCTYPE svg PUBLIC "-//W3C//DTD SVG 1.1//EN" "http://www.w3.org/Graphics/SVG/1.1/DTD/svg11.dtd">
<svg version="1.1" id="Calque_1" xmlns="http://www.w3.org/2000/svg" xmlns:xlink="http://www.w3.org/1999/xlink" x="0px" y="0px"
	 viewBox="0 0 319.4 71" enable-background="new 0 0 319.4 71" xml:space="preserve">
<g>
	<rect x="0.7" y="0.7" fill="#595C5F" width="318.1" height="69.7"/>
	<g>
		<defs>
			<rect id="SVGID_1_" x="0" y="0" width="319.4" height="71"/>
		</defs>
		<clipPath id="SVGID_2_">
			<use xlink:href="#SVGID_1_"  overflow="visible"/>
		</clipPath>
		<rect x="0.7" y="0.7" clip-path="url(#SVGID_2_)" fill="none" stroke="#FFFFFF" stroke-width="0.9" width="318.1" height="69.7"/>
	</g>
	<polygon fill="#D1D3D4" points="38.3,45.2 38.3,47.9 21.5,47.9 21.5,14.4 26.5,14.4 26.5,45.2 	"/>
	<polygon fill="none" stroke="#FFFFFF" stroke-width="1.200000e-02" points="38.3,45.2 38.3,47.9 21.5,47.9 21.5,14.4 26.5,14.4 
		26.5,45.2 	"/>
	<g>
		<defs>
			<rect id="SVGID_3_" x="0" y="0" width="319.4" height="71"/>
		</defs>
		<clipPath id="SVGID_4_">
			<use xlink:href="#SVGID_3_"  overflow="visible"/>
		</clipPath>
		<path clip-path="url(#SVGID_4_)" fill="#D1D3D4" d="M65.7,25.4v22.5h-4.7v-2.8c-0.8,1.1-2.9,3.8-8.2,3.8c-3.2,0-5.8-1.1-7.1-2.5
			c-1.5-1.6-1.8-3.6-1.8-6.1V25.4h4.7v13.1c0,2.5,0.1,3.9,0.7,5c0.7,1.2,2.2,2.5,4.9,2.5c0.6,0,3.9,0,6.8-3V25.4H65.7z"/>
		<path clip-path="url(#SVGID_4_)" fill="none" stroke="#FFFFFF" stroke-width="1.200000e-02" d="M65.7,25.4v22.5h-4.7v-2.8
			c-0.8,1.1-2.9,3.8-8.2,3.8c-3.2,0-5.8-1.1-7.1-2.5c-1.5-1.6-1.8-3.6-1.8-6.1V25.4h4.7v13.1c0,2.5,0.1,3.9,0.7,5
			c0.7,1.2,2.2,2.5,4.9,2.5c0.6,0,3.9,0,6.8-3V25.4H65.7z"/>
		<path clip-path="url(#SVGID_4_)" fill="#D1D3D4" d="M112.3,47.9h-4.6V33.8c0-1.6-0.1-2.4-0.2-3.1c-0.1-0.6-0.6-3.3-4.5-3.3
			c-3.8,0-5.9,2.6-6.7,3.5v17h-4.6V34.1c0-1,0-2.3-0.1-3.1c-0.6-3.4-3.9-3.6-4.8-3.6c-2.9,0-5,1.5-6.5,3.5v17h-4.6V25.4h4.6v3.1
			c0.9-1.1,3.3-4,8.5-4c1.5,0,3,0.3,4.3,0.9c2.2,1.1,2.7,2.6,3,3.5c0.5-0.7,1.2-1.5,2.5-2.5c2.4-1.6,4.7-1.9,6.4-1.9
			c3.4,0,5.4,1.3,6.3,2.7c1.1,1.6,1.1,3.7,1.1,6.5V47.9z"/>
		<path clip-path="url(#SVGID_4_)" fill="none" stroke="#FFFFFF" stroke-width="1.200000e-02" d="M112.3,47.9h-4.6V33.8
			c0-1.6-0.1-2.4-0.2-3.1c-0.1-0.6-0.6-3.3-4.5-3.3c-3.8,0-5.9,2.6-6.7,3.5v17h-4.6V34.1c0-1,0-2.3-0.1-3.1
			c-0.6-3.4-3.9-3.6-4.8-3.6c-2.9,0-5,1.5-6.5,3.5v17h-4.6V25.4h4.6v3.1c0.9-1.1,3.3-4,8.5-4c1.5,0,3,0.3,4.3,0.9
			c2.2,1.1,2.7,2.6,3,3.5c0.5-0.7,1.2-1.5,2.5-2.5c2.4-1.6,4.7-1.9,6.4-1.9c3.4,0,5.4,1.3,6.3,2.7c1.1,1.6,1.1,3.7,1.1,6.5V47.9z"/>
	</g>
	<rect x="121.9" y="25.4" fill="#D1D3D4" width="4.7" height="22.6"/>
	<rect x="121.9" y="25.4" fill="none" stroke="#FFFFFF" stroke-width="1.200000e-02" width="4.7" height="22.6"/>
	<g>
		<path fill="#D1D3D4" d="M158,47.9h-4.6V35.1c0-2.4,0-3.6-0.4-4.8c-0.8-2.4-3.6-3-5.1-3c-2.5,0-5.2,1.2-7,3.8v16.8h-4.6V25.4h4.6
			v3.1c1-1.2,3.5-4.1,8.9-4.1c3.8,0,5.5,1.3,6,1.7c2.2,1.7,2.2,3.9,2.2,5.9V47.9z"/>
		<path fill="none" stroke="#FFFFFF" stroke-width="1.200000e-02" d="M158,47.9h-4.6V35.1c0-2.4,0-3.6-0.4-4.8c-0.8-2.4-3.6-3-5.1-3
			c-2.5,0-5.2,1.2-7,3.8v16.8h-4.6V25.4h4.6v3.1c1-1.2,3.5-4.1,8.9-4.1c3.8,0,5.5,1.3,6,1.7c2.2,1.7,2.2,3.9,2.2,5.9V47.9z"/>
		<path fill="#D1D3D4" d="M183.1,43.4c-0.7,0.7-3.1,2.8-6.6,2.8c-3,0-5.8-1.7-5.8-4.6c0-2.2,1.8-5.1,7.2-5.1c2.4,0,4.4,0.4,5.2,0.6
			V43.4z M187.7,34.4c0-2.5,0-4.9-2-7c-2.7-2.9-6.9-2.9-8-2.9c-5.5,0-9.1,2.3-10.4,6.7c0.3,0.1,1,0.3,1.3,0.4c1.9-2.6,4.5-4,8-4
			c3.6,0,4.9,1.6,5.3,2.2c1.1,1.5,1.1,2.8,1.2,4.7c-3.2-0.6-5.1-0.6-5.8-0.6c-8.2,0-11.6,4.2-11.6,8c0,3.7,3.1,7,9.2,7
			c2,0,5.4-0.3,8.1-3.5v2.7h4.5V34.4z"/>
		<path fill="none" stroke="#FFFFFF" stroke-width="1.200000e-02" d="M183.1,43.4c-0.7,0.7-3.1,2.8-6.6,2.8c-3,0-5.8-1.7-5.8-4.6
			c0-2.2,1.8-5.1,7.2-5.1c2.4,0,4.4,0.4,5.2,0.6V43.4z M187.7,34.4c0-2.5,0-4.9-2-7c-2.7-2.9-6.9-2.9-8-2.9c-5.5,0-9.1,2.3-10.4,6.7
			c0.3,0.1,1,0.3,1.3,0.4c1.9-2.6,4.5-4,8-4c3.6,0,4.9,1.6,5.3,2.2c1.1,1.5,1.1,2.8,1.2,4.7c-3.2-0.6-5.1-0.6-5.8-0.6
			c-8.2,0-11.6,4.2-11.6,8c0,3.7,3.1,7,9.2,7c2,0,5.4-0.3,8.1-3.5v2.7h4.5V34.4z"/>
		<path fill="#D1D3D4" d="M201.3,47.9h-4.7V25.4h4.7v3.1c0.9-1.1,2.9-3.6,6.7-3.6c1.3,0,2,0.3,2.7,0.5V29c-0.8-0.3-2.3-0.9-4-0.9
			c-3.1,0-4.9,2.1-5.4,2.7V47.9z"/>
		<path fill="none" stroke="#FFFFFF" stroke-width="1.200000e-02" d="M201.3,47.9h-4.7V25.4h4.7v3.1c0.9-1.1,2.9-3.6,6.7-3.6
			c1.3,0,2,0.3,2.7,0.5V29c-0.8-0.3-2.3-0.9-4-0.9c-3.1,0-4.9,2.1-5.4,2.7V47.9z"/>
		<path fill="#D1D3D4" d="M235.1,46.6c-0.9,0.7-3.2,2.2-7.7,2.2C220,48.9,215,44.2,215,37c0-7.1,4.9-12.5,13-12.5
			c2.4,0,4.8,0.5,6.8,1.7c3,1.9,3.5,4.2,3.8,5.5c-0.4,0.1-1,0.3-1.4,0.4c-0.8-1.1-1.6-2.4-3.3-3.5c-1.5-0.9-3.3-1.3-5-1.3
			c-4.7,0-8.8,3.2-8.8,9.2c0,6.2,4.2,9.3,8.6,9.3c1.9,0,3.6-0.5,5.1-1.4c2.1-1.2,2.8-2.5,3.4-3.4c0.4,0.1,1,0.3,1.4,0.4
			C238,42.9,237.3,45,235.1,46.6"/>
		<path fill="none" stroke="#FFFFFF" stroke-width="1.200000e-02" d="M235.1,46.6c-0.9,0.7-3.2,2.2-7.7,2.2
			C220,48.9,215,44.2,215,37c0-7.1,4.9-12.5,13-12.5c2.4,0,4.8,0.5,6.8,1.7c3,1.9,3.5,4.2,3.8,5.5c-0.4,0.1-1,0.3-1.4,0.4
			c-0.8-1.1-1.6-2.4-3.3-3.5c-1.5-0.9-3.3-1.3-5-1.3c-4.7,0-8.8,3.2-8.8,9.2c0,6.2,4.2,9.3,8.6,9.3c1.9,0,3.6-0.5,5.1-1.4
			c2.1-1.2,2.8-2.5,3.4-3.4c0.4,0.1,1,0.3,1.4,0.4C238,42.9,237.3,45,235.1,46.6z"/>
		<path fill="#D1D3D4" d="M127.4,15.6c0,1.7-1.4,3.2-3.1,3.2c-1.7,0-3.2-1.4-3.2-3.2c0-1.7,1.4-3.1,3.2-3.1
			C126,12.5,127.4,13.9,127.4,15.6"/>
		<path fill="#A7A9AC" d="M282.9,21.6c0.2,0.8,0.4,1.8,0.4,2.3c0,4.1-6.4,1.5-11.3,11.5c-0.7,1.5-1.7,2.2-2.8,2.2
			c-4.4,0-10.6-9.4-13.1-15.5c-1.2-2.9-1.8-5.4-1.8-7.5c0-6,3.8-8.8,9.7-8.8c1.2,0,3.4,0.3,4.8,0.6C278.4,8.7,279.4,12,282.9,21.6"
			/>
		<path fill="#808285" d="M293.3,25.2c0.8-0.2,1.5-0.3,2.1-0.3c4.6,0,1,6.5,10.8,11.9c1.5,0.8,2.1,1.9,2.1,3
			c0,4.6-9.3,11.2-15.8,12.1c-1.8,0.2-3.4,0.4-4.8,0.4c-7.3,0-11-2.6-11-8.1c0-0.1,0.1-2.5,0.7-4.5
			C279.9,29.6,282.7,28.5,293.3,25.2"/>
		<path fill="#BCBEC0" d="M258.9,64.1c-3.8,0-7.1-2-12-6.2c-1.5-1.4-2-2.4-2-3.3c0-2.8,4.6-4.7,3-14c-0.6-3.4,1.8-4.7,5.2-4.7
			c4.8,0,11.6,2.7,15.1,6c4.6,4.4,7,8.3,7,11.6c0,3.2-2.3,5.9-7,8C264.4,63.2,261.5,64.1,258.9,64.1"/>
		<path fill="#D1D3D4" d="M245,22.9h0.9l1.5,2.5h1.1l-1.6-2.6c0.9-0.1,1.5-0.5,1.5-1.6c0-1.2-0.7-1.7-2.1-1.7H244v5.9h1V22.9z
			 M245,22v-1.7h1.2c0.6,0,1.3,0.1,1.3,0.8c0,0.9-0.6,0.9-1.4,0.9H245z M251.2,22.3c0-3.2-2.4-5.4-5.2-5.4c-2.8,0-5.2,2.1-5.2,5.4
			c0,3.1,2.2,5.4,5.2,5.4C248.8,27.7,251.2,25.6,251.2,22.3 M250.1,22.3c0,2.6-1.8,4.4-4.1,4.4c-2.5,0-4.1-2-4.1-4.4
			c0-2.6,1.8-4.4,4.1-4.4C248.3,17.9,250.1,19.7,250.1,22.3"/>
	</g>
</g>
</svg>
